HIERARCHY
ROOT Hips
{
  OFFSET -292.763 92.8989 420.775
  CHANNELS 6 Xposition Yposition Zposition Zrotation Xrotation Yrotation
  JOINT Spine
  {
    OFFSET 0 8 -1.02523e-05
    CHANNELS 6 Xposition Yposition Zposition Zrotation Xrotation Yrotation
    JOINT Spine1
    {
      OFFSET 1.80916e-05 8 -7.01518e-05
      CHANNELS 6 Xposition Yposition Zposition Zrotation Xrotation Yrotation
      JOINT Spine2
      {
        OFFSET -1.20539e-05 8 0
        CHANNELS 6 Xposition Yposition Zposition Zrotation Xrotation Yrotation
        JOINT Spine3
        {
          OFFSET 0 8 0
          CHANNELS 6 Xposition Yposition Zposition Zrotation Xrotation Yrotation
          JOINT Neck
          {
            OFFSET 0 17 0
            CHANNELS 6 Xposition Yposition Zposition Zrotation Xrotation Yrotation
            JOINT Head
            {
              OFFSET 0 10.8 3.79021e-05
              CHANNELS 6 Xposition Yposition Zposition Zrotation Xrotation Yrotation
              End Site
              {
                OFFSET 0 20.25 0
              }
            }
          }
          JOINT LeftShoulder
          {
            OFFSET 5.00001 17 0
            CHANNELS 6 Xposition Yposition Zposition Zrotation Xrotation Yrotation
            JOINT LeftShoulder2
            {
              OFFSET 6.45 0 0
              CHANNELS 6 Xposition Yposition Zposition Zrotation Xrotation Yrotation
              JOINT LeftArm
              {
                OFFSET 6.44999 0 -1.53931e-05
                CHANNELS 6 Xposition Yposition Zposition Zrotation Xrotation Yrotation
                JOINT LeftForeArm
                {
                  OFFSET 0 -32.4 -1.99996
                  CHANNELS 6 Xposition Yposition Zposition Zrotation Xrotation Yrotation
                  JOINT LeftHand
                  {
                    OFFSET 1.29818e-05 -25.65 2.00001
                    CHANNELS 6 Xposition Yposition Zposition Zrotation Xrotation Yrotation
                    JOINT LeftHandThumb1
                    {
                      OFFSET -0.500029 -1.49992 2.64999
                      CHANNELS 6 Xposition Yposition Zposition Zrotation Xrotation Yrotation
                      JOINT LeftHandThumb2
                      {
                        OFFSET -1.00866e-05 -3.80007 3.69995
                        CHANNELS 6 Xposition Yposition Zposition Zrotation Xrotation Yrotation
                        JOINT LeftHandThumb3
                        {
                          OFFSET 0 -2.99998 2.69996
                          CHANNELS 6 Xposition Yposition Zposition Zrotation Xrotation Yrotation
                          End Site
                          {
                            OFFSET 0 -2.29999 1.79995
                          }
                        }
                      }
                    }
                    JOINT LeftHandIndex
                    {
                      OFFSET 4.89599e-05 -1.89999 1.59998
                      CHANNELS 6 Xposition Yposition Zposition Zrotation Xrotation Yrotation
                      JOINT LeftHandIndex1
                      {
                        OFFSET 7.7194e-05 -8.3 1.90001
                        CHANNELS 6 Xposition Yposition Zposition Zrotation Xrotation Yrotation
                        JOINT LeftHandIndex2
                        {
                          OFFSET 0 -4.49998 0
                          CHANNELS 6 Xposition Yposition Zposition Zrotation Xrotation Yrotation
                          JOINT LeftHandIndex3
                          {
                            OFFSET 0 -3.39996 0
                            CHANNELS 6 Xposition Yposition Zposition Zrotation Xrotation Yrotation
                            End Site
                            {
                              OFFSET 0 -2.59998 -1.93011e-05
                            }
                          }
                        }
                      }
                    }
                    JOINT LeftHandMiddle
                    {
                      OFFSET -0.249955 -2.20001 0.399981
                      CHANNELS 6 Xposition Yposition Zposition Zrotation Xrotation Yrotation
                      JOINT LeftHandMiddle1
                      {
                        OFFSET -5.46338e-05 -8.29994 1.00001
                        CHANNELS 6 Xposition Yposition Zposition Zrotation Xrotation Yrotation
                        JOINT LeftHandMiddle2
                        {
                          OFFSET 0 -4.64999 0
                          CHANNELS 6 Xposition Yposition Zposition Zrotation Xrotation Yrotation
                          JOINT LeftHandMiddle3
                          {
                            OFFSET -2.1284e-05 -3.29999 0
                            CHANNELS 6 Xposition Yposition Zposition Zrotation Xrotation Yrotation
                            End Site
                            {
                              OFFSET 1.40934e-05 -2.69995 0
                            }
                          }
                        }
                      }
                    }
                    JOINT LeftHandRing
                    {
                      OFFSET -0.500036 -2.14996 -0.800014
                      CHANNELS 6 Xposition Yposition Zposition Zrotation Xrotation Yrotation
                      JOINT LeftHandRing1
                      {
                        OFFSET 9.14281e-05 -7.74998 -0.199997
                        CHANNELS 6 Xposition Yposition Zposition Zrotation Xrotation Yrotation
                        JOINT LeftHandRing2
                        {
                          OFFSET 0 -3.79994 0
                          CHANNELS 6 Xposition Yposition Zposition Zrotation Xrotation Yrotation
                          JOINT LeftHandRing3
                          {
                            OFFSET -2.81508e-05 -3.39989 0
                            CHANNELS 6 Xposition Yposition Zposition Zrotation Xrotation Yrotation
                            End Site
                            {
                              OFFSET 2.6342e-05 -2.6001 0
                            }
                          }
                        }
                      }
                    }
                    JOINT LeftHandPinky
                    {
                      OFFSET -0.750019 -1.74999 -1.85001
                      CHANNELS 6 Xposition Yposition Zposition Zrotation Xrotation Yrotation
                      JOINT LeftHandPinky1
                      {
                        OFFSET -1.67784e-05 -7.15002 -1
                        CHANNELS 6 Xposition Yposition Zposition Zrotation Xrotation Yrotation
                        JOINT LeftHandPinky2
                        {
                          OFFSET 1.19208e-05 -2.99991 1.03737e-05
                          CHANNELS 6 Xposition Yposition Zposition Zrotation Xrotation Yrotation
                          JOINT LeftHandPinky3
                          {
                            OFFSET 0 -2.34994 -1.61831e-05
                            CHANNELS 6 Xposition Yposition Zposition Zrotation Xrotation Yrotation
                            End Site
                            {
                              OFFSET 0 -2.10001 -1.13703e-05
                            }
                          }
                        }
                      }
                    }
                  }
                }
              }
            }
          }
          JOINT RightShoulder
          {
            OFFSET -4.99998 17 1.61111e-05
            CHANNELS 6 Xposition Yposition Zposition Zrotation Xrotation Yrotation
            JOINT RightShoulder2
            {
              OFFSET -6.45 0 0
              CHANNELS 6 Xposition Yposition Zposition Zrotation Xrotation Yrotation
              JOINT RightArm
              {
                OFFSET -6.44999 0 -3.62629e-05
                CHANNELS 6 Xposition Yposition Zposition Zrotation Xrotation Yrotation
                JOINT RightForeArm
                {
                  OFFSET -6.99941e-05 -32.4 -2.00006
                  CHANNELS 6 Xposition Yposition Zposition Zrotation Xrotation Yrotation
                  JOINT RightHand
                  {
                    OFFSET 0 -25.65 2.00002
                    CHANNELS 6 Xposition Yposition Zposition Zrotation Xrotation Yrotation
                    JOINT RightHandThumb1
                    {
                      OFFSET 0.500012 -1.5 2.6501
                      CHANNELS 6 Xposition Yposition Zposition Zrotation Xrotation Yrotation
                      JOINT RightHandThumb2
                      {
                        OFFSET 5.20228e-05 -3.80006 3.7
                        CHANNELS 6 Xposition Yposition Zposition Zrotation Xrotation Yrotation
                        JOINT RightHandThumb3
                        {
                          OFFSET -1.93663e-05 -3 2.69999
                          CHANNELS 6 Xposition Yposition Zposition Zrotation Xrotation Yrotation
                          End Site
                          {
                            OFFSET -7.82097e-05 -2.3 1.80001
                          }
                        }
                      }
                    }
                    JOINT RightHandIndex
                    {
                      OFFSET -4.65075e-05 -1.9 1.59999
                      CHANNELS 6 Xposition Yposition Zposition Zrotation Xrotation Yrotation
                      JOINT RightHandIndex1
                      {
                        OFFSET 9.2772e-05 -8.30008 1.90005
                        CHANNELS 6 Xposition Yposition Zposition Zrotation Xrotation Yrotation
                        JOINT RightHandIndex2
                        {
                          OFFSET 7.03715e-05 -4.50008 3.13223e-05
                          CHANNELS 6 Xposition Yposition Zposition Zrotation Xrotation Yrotation
                          JOINT RightHandIndex3
                          {
                            OFFSET 6.82978e-05 -3.4 2.81859e-05
                            CHANNELS 6 Xposition Yposition Zposition Zrotation Xrotation Yrotation
                            End Site
                            {
                              OFFSET 0 -2.6 0.00231456
                            }
                          }
                        }
                      }
                    }
                    JOINT RightHandMiddle
                    {
                      OFFSET 0.249999 -2.19995 0.400034
                      CHANNELS 6 Xposition Yposition Zposition Zrotation Xrotation Yrotation
                      JOINT RightHandMiddle1
                      {
                        OFFSET 2.73281e-05 -8.29995 0.999981
                        CHANNELS 6 Xposition Yposition Zposition Zrotation Xrotation Yrotation
                        JOINT RightHandMiddle2
                        {
                          OFFSET 0 -4.65 5.64909e-05
                          CHANNELS 6 Xposition Yposition Zposition Zrotation Xrotation Yrotation
                          JOINT RightHandMiddle3
                          {
                            OFFSET -4.84799e-05 -3.30001 0
                            CHANNELS 6 Xposition Yposition Zposition Zrotation Xrotation Yrotation
                            End Site
                            {
                              OFFSET -1.74252e-05 -2.70005 4.41968e-05
                            }
                          }
                        }
                      }
                    }
                    JOINT RightHandRing
                    {
                      OFFSET 0.500013 -2.15007 -0.799971
                      CHANNELS 6 Xposition Yposition Zposition Zrotation Xrotation Yrotation
                      JOINT RightHandRing1
                      {
                        OFFSET 6.61902e-05 -7.75006 -0.200034
                        CHANNELS 6 Xposition Yposition Zposition Zrotation Xrotation Yrotation
                        JOINT RightHandRing2
                        {
                          OFFSET -5.29407e-05 -3.8 5.12224e-05
                          CHANNELS 6 Xposition Yposition Zposition Zrotation Xrotation Yrotation
                          JOINT RightHandRing3
                          {
                            OFFSET -6.67217e-05 -3.39999 1.17837e-05
                            CHANNELS 6 Xposition Yposition Zposition Zrotation Xrotation Yrotation
                            End Site
                            {
                              OFFSET 8.88506e-05 -2.59996 7.83732e-05
                            }
                          }
                        }
                      }
                    }
                    JOINT RightHandPinky
                    {
                      OFFSET 0.749982 -1.74997 -1.85003
                      CHANNELS 6 Xposition Yposition Zposition Zrotation Xrotation Yrotation
                      JOINT RightHandPinky1
                      {
                        OFFSET -5.44773e-05 -7.15002 -1.00009
                        CHANNELS 6 Xposition Yposition Zposition Zrotation Xrotation Yrotation
                        JOINT RightHandPinky2
                        {
                          OFFSET -6.51117e-05 -3 8.1476e-05
                          CHANNELS 6 Xposition Yposition Zposition Zrotation Xrotation Yrotation
                          JOINT RightHandPinky3
                          {
                            OFFSET -2.71005e-05 -2.34999 -2.22417e-05
                            CHANNELS 6 Xposition Yposition Zposition Zrotation Xrotation Yrotation
                            End Site
                            {
                              OFFSET -6.96964e-05 -2.09998 1.32209e-05
                            }
                          }
                        }
                      }
                    }
                  }
                }
              }
            }
          }
        }
      }
    }
  }
  JOINT LeftUpLeg
  {
    OFFSET 8 0 1.51479e-05
    CHANNELS 6 Xposition Yposition Zposition Zrotation Xrotation Yrotation
    JOINT LeftLeg
    {
      OFFSET 1.87605e-05 -45 -1
      CHANNELS 6 Xposition Yposition Zposition Zrotation Xrotation Yrotation
      JOINT LeftFoot
      {
        OFFSET -2.50227e-05 -41 -2
        CHANNELS 6 Xposition Yposition Zposition Zrotation Xrotation Yrotation
        JOINT LeftToeBase
        {
          OFFSET 5.16587e-05 -7.50001 12.5
          CHANNELS 6 Xposition Yposition Zposition Zrotation Xrotation Yrotation
          JOINT LeftFootToe
          {
            OFFSET 0 0 4
            CHANNELS 6 Xposition Yposition Zposition Zrotation Xrotation Yrotation
            End Site
            {
              OFFSET 0 0 0
            }
          }
        }
      }
    }
  }
  JOINT RightUpLeg
  {
    OFFSET -8 0 -1.51479e-05
    CHANNELS 6 Xposition Yposition Zposition Zrotation Xrotation Yrotation
    JOINT RightLeg
    {
      OFFSET 1.22528e-05 -45 -0.999936
      CHANNELS 6 Xposition Yposition Zposition Zrotation Xrotation Yrotation
      JOINT RightFoot
      {
        OFFSET 1.98675e-05 -41 -2.00003
        CHANNELS 6 Xposition Yposition Zposition Zrotation Xrotation Yrotation
        JOINT RightToeBase
        {
          OFFSET 0 -7.5 12.4999
          CHANNELS 6 Xposition Yposition Zposition Zrotation Xrotation Yrotation
          JOINT RightFootToe
          {
            OFFSET 0 0 4
            CHANNELS 6 Xposition Yposition Zposition Zrotation Xrotation Yrotation
            End Site
            {
              OFFSET 0 0 0
            }
          }
        }
      }
    }
  }
}
MOTION
Frames:	3
Frame Time:	0.0111111
-302.192 92.5184 420.271 -2.5242 -3.20846 31.5923 0 8 -2.84217e-14 16.7013 -5.21161 2.23489 0 8 0 3.03325 0.896758 2.41462 0 8 0 1.52744 0.431763 1.2134 0 8 -5.68434e-14 1.53394 0.431471 1.21278 1.13687e-13 17 -2.84217e-14 -1.43609 0.214946 13.2428 -5.68434e-14 10.8 2.84217e-14 -3.38969 -0.0321252 31.2208 5 17 2.84217e-14 1.12116 -2.49739 0.088428 6.45 0 2.84217e-14 -0.26326 -1.15477 -1.75734 6.45 -5.68434e-14 -2.84217e-14 7.67012 -33.6276 7.69825 0 -32.4 -2 3.54201 -51.5148 39.6612 -5.68434e-14 -25.65 2 7.67302 -12.1015 34.5847 -0.5 -1.5 2.65 7.03248 -20.9375 18.9645 -5.68434e-14 -3.8 3.7 -0.0254976 -0.348399 0.00296662 -5.68434e-14 -3 2.7 -0.000210747 18.8103 0.00342948 0 -1.9 1.6 2.40548e-06 -2.52571e-06 -3.7517e-06 0 -8.3 1.9 -40.401 31.643 13.0653 2.84217e-14 -4.5 -2.84217e-14 -69.4802 0.00110965 -0.00647658 0 -3.4 5.68434e-14 -51.3026 0.00461494 -0.00449111 -0.25 -2.2 0.4 2.40548e-06 -2.52571e-06 -3.7517e-06 0 -8.3 1 -51.5173 20.5707 12.124 2.84217e-14 -4.65 0 -42.726 -0.00814149 -0.00479565 8.52651e-14 -3.3 2.84217e-14 -29.766 0.00314676 -0.00260793 -0.5 -2.15 -0.8 2.40548e-06 -2.52571e-06 -3.7517e-06 0 -7.75 -0.2 -62.8037 13.6861 12.564 2.84217e-14 -3.8 2.84217e-14 -30.6651 0.00681148 -0.0172827 -2.84217e-14 -3.4 2.84217e-14 -22.4924 -0.00763697 0.0293027 -0.75 -1.75 -1.85 2.40548e-06 -2.52571e-06 -3.7517e-06 -5.68434e-14 -7.15 -1 -65.4151 2.54068 7.05782 5.68434e-14 -3 -5.68434e-14 -59.7293 -0.00801511 -0.00464286 0 -2.35 0 -41.8485 0.000589093 -0.00111803 -5 17 -5.68434e-14 -4.38249 -5.29319 1.28206 -6.45 0 0 -1.92958 1.45573 -1.54458 -6.45 -2.84217e-14 -2.84217e-14 7.8981 -50.6262 37.4406 0 -32.4 -2 114.84 -68.5062 118.111 -1.13687e-13 -25.65 2 -8.26826 -9.60564 2.68399 0.5 -1.5 2.65 132.76 22.1555 -164.433 0 -3.8 3.7 0.247707 41.1972 0.021288 0 -3 2.7 -0.210434 13.1324 0.145316 0 -1.9 1.6 6.60064e-06 -2.8455e-06 -7.90823e-06 -1.13687e-13 -8.3 1.9 4.36789 -15.84 0.463164 0 -4.5 0 28.7854 0.00836111 -0.0232428 0 -3.4 -2.84217e-14 21.3616 0.000417044 -0.0153572 0.25 -2.2 0.4 6.60064e-06 -2.8455e-06 -7.90823e-06 1.13687e-13 -8.3 1 3.97823 -15.1792 0.320007 0 -4.65 -2.84217e-14 17.0619 0.00784999 -0.0160655 0 -3.3 -2.84217e-14 13.9195 -0.00182857 -0.0126367 0.5 -2.15 -0.8 6.60064e-06 -2.8455e-06 -7.90823e-06 1.13687e-13 -7.75 -0.2 2.69883 -12.8004 0.0336313 0 -3.8 0 12.7452 0.00852396 0.00554578 5.68434e-14 -3.4 0 10.8573 0.0353338 0.0213811 0.75 -1.75 -1.85 6.60064e-06 -2.8455e-06 -7.90823e-06 0 -7.15 -1 1.77943 -10.9527 -0.0944696 1.13687e-13 -3 -2.84217e-14 0.0678385 0.0604972 -0.107268 0 -2.35 2.84217e-14 4.00179e-05 0.057006 -0.0744912 8 0 -2.84217e-14 8.35133 -13.8271 24.0082 0 -45 -1 -0.797741 31.5366 -9.82332 0 -41 -2 5.54367 -15.5581 -18.2429 -1.13687e-13 -7.5 12.5 -1.81598e-07 -5.36019e-07 -3.33964e-06 5.68434e-14 -4.44089e-16 4 7.38259 -3.34315 37.3823 -8 0 0 3.73156 1.36757 -3.60302 -1.13687e-13 -45 -1 0.00126269 6.05967 0.78049 -1.13687e-13 -41 -2 0.0200262 -6.01459 -21.5524 0 -7.5 12.5 -0.000181241 0.094336 1.58785e-05 0 0 4 -3.35739 1.90699 35.9125 
-302.135 92.5181 420.277 -2.48563 -3.19233 31.5944 0 8 2.84217e-14 16.688 -5.24929 2.25436 0 8 2.84217e-14 3.04101 0.896245 2.42611 0 8 2.84217e-14 1.52952 0.430227 1.21916 0 8 5.68434e-14 1.53418 0.42985 1.21843 5.68434e-14 17 0 -1.4991 0.190962 13.1983 0 10.8 -5.68434e-14 -3.52642 -0.108541 31.1127 5 17 2.84217e-14 1.09418 -2.52405 0.116894 6.45 5.68434e-14 0 -0.276074 -1.16673 -1.77916 6.45 -5.68434e-14 0 7.58614 -33.532 7.53907 0 -32.4 -2 3.61191 -51.5416 39.5855 -5.68434e-14 -25.65 2 8.25882 -12.2869 34.4102 -0.5 -1.5 2.65 7.22104 -21.133 19.2263 0 -3.8 3.7 -0.025062 -0.348428 0.00279545 -5.68434e-14 -3 2.7 -0.000343324 19.327 0.00308778 0 -1.9 1.6 2.40548e-06 -2.52571e-06 -3.7517e-06 5.68434e-14 -8.3 1.9 -40.8871 31.4746 13.1569 -5.68434e-14 -4.5 0 -69.3396 0.00108093 -0.00671474 0 -3.4 0 -51.1479 0.00500716 -0.00615434 -0.25 -2.2 0.4 2.40548e-06 -2.52571e-06 -3.7517e-06 0 -8.3 1 -51.797 20.4827 12.1591 0 -4.65 0 -42.6067 -0.00786223 -0.00455074 2.84217e-14 -3.3 0 -29.6913 0.0026579 -0.00241698 -0.5 -2.15 -0.8 2.40548e-06 -2.52571e-06 -3.7517e-06 0 -7.75 -0.2 -62.9933 13.5962 12.5617 -2.84217e-14 -3.8 2.84217e-14 -30.7795 0.00807955 -0.016406 2.84217e-14 -3.4 0 -22.5609 -0.00773339 0.029267 -0.75 -1.75 -1.85 2.40548e-06 -2.52571e-06 -3.7517e-06 -5.68434e-14 -7.15 -1 -65.4953 2.47831 7.03794 0 -3 0 -60.0447 -0.00785846 -0.00492836 0 -2.35 5.68434e-14 -42.1152 0.000535548 -0.00147998 -5 17 -2.84217e-14 -4.44246 -5.2776 1.27359 -6.45 0 0 -1.92834 1.45547 -1.55526 -6.45 -5.68434e-14 2.84217e-14 8.064 -50.6308 37.5904 0 -32.4 -2 114.888 -68.5194 118.033 0 -25.65 2 -7.9002 -9.64469 2.49282 0.5 -1.5 2.65 132.699 22.3863 -164.519 0 -3.8 3.7 0.248049 41.1988 0.0220733 5.68434e-14 -3 2.7 -0.208724 13.1339 0.1444 0 -1.9 1.6 6.60064e-06 -2.8455e-06 -7.90823e-06 -1.13687e-13 -8.3 1.9 4.73664 -16.1498 0.522999 1.13687e-13 -4.5 -2.84217e-14 28.5369 0.00946555 -0.0119718 0 -3.4 2.84217e-14 21.2127 0.0022563 -0.00851295 0.25 -2.2 0.4 6.60064e-06 -2.8455e-06 -7.90823e-06 2.27374e-13 -8.3 1 4.23502 -15.3868 0.358743 0 -4.65 0 16.945 0.00759683 -0.00708589 0 -3.3 0 13.841 -0.00131663 -0.00567003 0.5 -2.15 -0.8 6.60064e-06 -2.8455e-06 -7.90823e-06 1.13687e-13 -7.75 -0.2 2.76198 -12.7799 0.0433285 -1.13687e-13 -3.8 2.84217e-14 13.5355 0.00745217 0.00591342 0 -3.4 -2.84217e-14 11.4277 0.0351983 0.0247812 0.75 -1.75 -1.85 6.60064e-06 -2.8455e-06 -7.90823e-06 0 -7.15 -1 1.71025 -10.7398 -0.0948302 -1.13687e-13 -3 0 0.0675616 0.0606509 -0.107574 0 -2.35 5.68434e-14 4.02498e-05 0.0570632 -0.0746492 8 0 2.84217e-14 8.26884 -13.7838 23.9854 -1.13687e-13 -45 -1 -0.797471 31.4987 -9.82575 0 -41 -2 5.56378 -15.5534 -18.2584 0 -7.5 12.5 -1.81598e-07 -5.36019e-07 -3.33964e-06 0 0 4 7.34602 -3.36006 37.3831 -8 1.42109e-14 5.68434e-14 3.65958 1.37338 -3.62185 0 -45 -1 0.000286009 6.10994 0.780458 0 -41 -2 0.0497751 -6.06268 -21.5489 0 -7.5 12.5 -0.00018124 0.0935224 1.58785e-05 0 0 4 -3.4011 1.91702 35.9127 
-302.077 92.5177 420.284 -2.44749 -3.17509 31.5931 -1.13687e-13 8 -2.84217e-14 16.6739 -5.28588 2.27632 -5.68434e-14 8 -2.84217e-14 3.04926 0.895128 2.4379 0 8 2.84217e-14 1.53207 0.42861 1.2252 0 8 0 1.53443 0.428258 1.22439 0 17 2.84217e-14 -1.56725 0.170967 13.1454 0 10.8 2.84217e-14 -3.67655 -0.177064 30.9845 5 17 2.84217e-14 1.05816 -2.5489 0.130305 6.45 -5.68434e-14 0 -0.286651 -1.17775 -1.79545 6.45 0 2.84217e-14 7.53575 -33.4209 7.38524 0 -32.4 -2 3.64915 -51.5747 39.5113 0 -25.65 2 8.84587 -12.4398 34.2685 -0.5 -1.5 2.65 7.38501 -21.291 19.4297 -5.68434e-14 -3.8 3.7 -0.0246563 -0.348458 0.00262414 0 -3 2.7 -0.000339864 19.8471 0.00270501 -5.68434e-14 -1.9 1.6 2.40548e-06 -2.52571e-06 -3.7517e-06 0 -8.3 1.9 -41.3332 31.3338 13.2486 0 -4.5 0 -69.1494 0.00105363 -0.0069532 -5.68434e-14 -3.4 5.68434e-14 -50.9378 0.00542927 -0.00695704 -0.25 -2.2 0.4 2.40548e-06 -2.52571e-06 -3.7517e-06 0 -8.3 1 -52.0221 20.4284 12.1962 5.68434e-14 -4.65 -2.84217e-14 -42.5006 -0.00758424 -0.00430156 5.68434e-14 -3.3 0 -29.625 0.00221875 -0.00227972 -0.5 -2.15 -0.8 2.40548e-06 -2.52571e-06 -3.7517e-06 0 -7.75 -0.2 -63.1312 13.5386 12.5647 2.84217e-14 -3.8 0 -30.8921 0.00892517 -0.015508 0 -3.4 0 -22.6283 -0.00784732 0.0289514 -0.75 -1.75 -1.85 2.40548e-06 -2.52571e-06 -3.7517e-06 0 -7.15 -1 -65.5313 2.43499 7.01983 5.68434e-14 -3 0 -60.3677 -0.00771004 -0.00522644 0 -2.35 0 -42.3882 0.000463664 -0.00186905 -5 17 0 -4.49724 -5.25638 1.25983 -6.45 2.84217e-14 0 -1.92714 1.45489 -1.55839 -6.45 -2.84217e-14 -2.84217e-14 8.17367 -50.593 37.688 0 -32.4 -2 114.918 -68.511 117.935 0 -25.65 2 -7.58742 -9.69031 2.30215 0.5 -1.5 2.65 132.696 22.6363 -164.583 0 -3.8 3.7 0.248264 41.1766 0.0228252 0 -3 2.7 -0.207014 13.1355 0.143482 0 -1.9 1.6 6.60064e-06 -2.8455e-06 -7.90823e-06 0 -8.3 1.9 5.08941 -16.4197 0.580797 -1.13687e-13 -4.5 2.84217e-14 28.5172 0.0101377 -0.00166335 5.68434e-14 -3.4 0 21.2009 0.00338736 -0.00152595 0.25 -2.2 0.4 6.60064e-06 -2.8455e-06 -7.90823e-06 1.13687e-13 -8.3 1 4.47566 -15.5554 0.395426 0 -4.65 0 17.0107 0.00721514 0.00172531 5.68434e-14 -3.3 2.84217e-14 13.8851 -0.000754937 0.00153136 0.5 -2.15 -0.8 6.60064e-06 -2.8455e-06 -7.90823e-06 0 -7.75 -0.2 2.81132 -12.7218 0.0518842 0 -3.8 0 14.3505 0.00639195 0.00623102 0 -3.4 2.84217e-14 12.0125 0.0350338 0.0280371 0.75 -1.75 -1.85 6.60064e-06 -2.8455e-06 -7.90823e-06 0 -7.15 -1 1.63082 -10.493 -0.0951527 1.13687e-13 -3 -2.84217e-14 0.0673035 0.0607967 -0.107863 -1.13687e-13 -2.35 -2.84217e-14 4.0454e-05 0.0571095 -0.0747936 8 1.42109e-14 2.84217e-14 8.18348 -13.7417 23.9548 1.13687e-13 -45 -1 -0.797222 31.4613 -9.82825 5.68434e-14 -41 -2 5.58466 -15.5488 -18.2666 0 -7.5 12.5 -1.81598e-07 -5.36019e-07 -3.33964e-06 5.68434e-14 0 4 7.30976 -3.37769 37.3839 -8 7.10543e-15 -5.68434e-14 3.58604 1.37689 -3.64253 0 -45 -1 -0.000730299 6.16366 0.78018 0 -41 -2 0.0805817 -6.11282 -21.5412 0 -7.5 12.5 -0.00018124 0.0926637 1.58785e-05 5.68434e-14 -1.11022e-16 4 -3.44714 1.9295 35.9129 
